<svg width="16" height="16" viewBox="0 0 16 16" fill="none" xmlns="http://www.w3.org/2000/svg">
<path fill-rule="evenodd" clip-rule="evenodd" d="M14 9.5V2.5H15V9.5C15 10.8807 13.8807 12 12.5 12H9.5V11H12.5C13.3284 11 14 10.3284 14 9.5Z" fill="#7F8C99"/>
<circle cx="14" cy="4" r="1.5" fill="#D1D6DC" stroke="#7F8C98"/>
<path d="M2 0.5H9C9.82843 0.5 10.5 1.17157 10.5 2V15.5H0.5V2C0.5 1.17157 1.17157 0.5 2 0.5Z" fill="#D1D6DC" stroke="#7F8C98"/>
<rect x="0.5" y="2.5" width="10" height="7" fill="white" stroke="#7F8C99"/>
<path d="M2 5H3V7H2V5Z" fill="#2979FF"/>
<path d="M5 5H6V7H5V5Z" fill="#2979FF"/>
<path d="M9 5H8V7H9V5Z" fill="#2979FF"/>
</svg>
