<svg width="16" height="16" viewBox="0 0 16 16" fill="none" xmlns="http://www.w3.org/2000/svg">
<g opacity="0.87">
<path d="M7 0H8V8H7V0Z" fill="#212121"/>
<path d="M2.85961 3.80388C0.296796 6.37846 0.296796 10.5527 2.85961 13.1273C5.42243 15.7018 9.57757 15.7018 12.1404 13.1273C14.7032 10.5527 14.7032 6.37846 12.1404 3.80388C11.9573 3.61998 11.9573 3.32182 12.1404 3.13792C12.3234 2.95403 12.6202 2.95403 12.8033 3.13792C15.7322 6.0803 15.7322 10.8508 12.8033 13.7932C9.87437 16.7356 5.12563 16.7356 2.1967 13.7932C-0.732233 10.8508 -0.732233 6.0803 2.1967 3.13792C2.37976 2.95403 2.67655 2.95403 2.85961 3.13792C3.04267 3.32182 3.04267 3.61998 2.85961 3.80388Z" fill="#212121"/>
</g>
</svg>
