<svg width="16" height="16" viewBox="0 0 16 16" fill="none" xmlns="http://www.w3.org/2000/svg">
<path fill-rule="evenodd" clip-rule="evenodd" d="M2 1H10L14 5V15H2V1Z" fill="#FEEAA9"/>
<path fill-rule="evenodd" clip-rule="evenodd" d="M10 0L15 5H10V0Z" fill="white"/>
<path fill-rule="evenodd" clip-rule="evenodd" d="M15 14C15 14.5304 14.7893 15.0391 14.4142 15.4142C14.0391 15.7893 13.5304 16 13 16H3C2.46957 16 1.96086 15.7893 1.58579 15.4142C1.21071 15.0391 1 14.5304 1 14V2C1 1.46957 1.21071 0.960859 1.58579 0.585786C1.96086 0.210714 2.46957 0 3 0L12 0L15 3V14ZM11 1V4H14L11 1ZM14 5H10V1H3C2.73478 1 2.48043 1.10536 2.29289 1.29289C2.10536 1.48043 2 1.73478 2 2V14C2 14.2652 2.10536 14.5196 2.29289 14.7071C2.48043 14.8946 2.73478 15 3 15H13C13.2652 15 13.5196 14.8946 13.7071 14.7071C13.8946 14.5196 14 14.2652 14 14V5ZM5 8H10V9H5V8ZM8 11H5V10H8V11Z" fill="#E0A600"/>
</svg>
