<svg width="16" height="16" viewBox="0 0 16 16" fill="none" xmlns="http://www.w3.org/2000/svg">
<path opacity="0.54" fill-rule="evenodd" clip-rule="evenodd" d="M10.6265 9.5H10.031L9.824 9.2945C10.5553 8.44175 11 7.33625 11 6.125C11 3.4325 8.8175 1.25 6.125 1.25C3.4325 1.25 1.25 3.4325 1.25 6.125C1.25 8.8175 3.4325 11 6.125 11C7.33625 11 8.441 10.556 9.29375 9.8255L9.50075 10.031V10.625L13.2492 14.3682L14.3675 13.25L10.6265 9.5ZM6.125 9.5C4.2605 9.5 2.75 7.9895 2.75 6.125C2.75 4.26125 4.2605 2.75 6.125 2.75C7.98875 2.75 9.5 4.26125 9.5 6.125C9.5 7.9895 7.98875 9.5 6.125 9.5Z" fill="#212121"/>
</svg>
