<svg width="16" height="16" viewBox="0 0 16 16" fill="none" xmlns="http://www.w3.org/2000/svg">
<path fill-rule="evenodd" clip-rule="evenodd" d="M8 7V16C11.57 15.086 15 10.693 15 7H8ZM1 3V7H8V0L1 3Z" fill="white"/>
<path fill-rule="evenodd" clip-rule="evenodd" d="M8 0V7H15V3L8 0ZM1 8C1.452 11.262 4.781 15.174 8 16V7H1C1.01882 7.33307 1.01882 7.66693 1 8V8Z" fill="#2979FF"/>
<path d="M14.5 7C14.5 8.7032 13.7023 10.6195 12.4443 12.2349C11.2179 13.8097 9.60657 15.0311 8.00034 15.4822C6.55859 15.074 5.0552 13.9872 3.84014 12.5859C2.60368 11.16 1.72234 9.47343 1.50191 7.97785C1.5188 7.64747 1.51816 7.31641 1.5 6.98608V3.3297L8 0.543984L14.5 3.3297V7Z" stroke="#2979FF"/>
</svg>
