<svg width="16" height="16" viewBox="0 0 16 16" fill="none" xmlns="http://www.w3.org/2000/svg">
<g opacity="0.87">
<path d="M1.67358 5C2.79712 2.63507 5.20752 1 8 1C11.1709 1 13.8496 3.10852 14.71 6H15.7478C14.8599 2.54956 11.7275 0 8 0C4.98804 0 2.36475 1.66452 1 4.1239V1H0V6H5V5H1.67358Z" fill="white"/>
<path d="M14.3262 11C13.2029 13.3649 10.7922 15 8 15C4.82886 15 2.15039 12.8915 1.28979 10H0.251953C1.14014 13.4504 4.27222 16 8 16C11.012 16 13.6353 14.3353 15 11.8758V15H16V10H11V11H14.3262Z" fill="white"/>
</g>
</svg>
